<svg width="512" height="512" version="1.1" xmlns="http://www.w3.org/2000/svg" desc="Created with imagetracer.js version 1.2.6" ><path fill="rgb(239,248,253)" stroke="rgb(239,248,253)" stroke-width="1" opacity="1" d="M 76.5 34 L 436 34.5 L 76.5 35 L 76.5 34 Z " /><path fill="rgb(239,248,253)" stroke="rgb(239,248,253)" stroke-width="1" opacity="1" d="M 60.5 40 L 57.5 44 L 60.5 40 Z " /><path fill="rgb(239,248,253)" stroke="rgb(239,248,253)" stroke-width="1" opacity="1" d="M 451.5 40 L 454.5 44 L 451.5 40 Z " /><path fill="rgb(239,248,253)" stroke="rgb(239,248,253)" stroke-width="1" opacity="1" d="M 355.5 95 L 356.5 97 L 355.5 95 Z " /><path fill="rgb(239,248,253)" stroke="rgb(239,248,253)" stroke-width="1" opacity="1" d="M 412.5 95 L 411.5 97 L 412.5 95 Z " /><path fill="rgb(239,248,253)" stroke="rgb(239,248,253)" stroke-width="1" opacity="1" d="M 377.5 108 L 378.5 110 L 377.5 108 Z " /><path fill="rgb(239,248,253)" stroke="rgb(239,248,253)" stroke-width="1" opacity="1" d="M 390.5 108 L 389.5 110 L 390.5 108 Z " /><path fill="rgb(239,248,253)" stroke="rgb(239,248,253)" stroke-width="1" opacity="1" d="M 288.5 338 L 287.5 340 L 288.5 338 Z " /><path fill="rgb(239,248,253)" stroke="rgb(239,248,253)" stroke-width="1" opacity="1" d="M 494.5 400 L 495 486.5 L 494 486.5 L 494.5 400 Z " /><path fill="rgb(239,248,253)" stroke="rgb(239,248,253)" stroke-width="1" opacity="1" d="M 420.5 421 L 423.5 425 L 420.5 421 Z " /><path fill="rgb(239,248,253)" stroke="rgb(239,248,253)" stroke-width="1" opacity="1" d="M 397.5 422 L 396.5 424 L 397.5 422 Z " /><path fill="rgb(239,248,253)" stroke="rgb(239,248,253)" stroke-width="1" opacity="1" d="M 418.5 451 L 419 469.5 L 418 469.5 L 418.5 451 Z " /><path fill="rgb(239,248,253)" stroke="rgb(239,248,253)" stroke-width="1" opacity="1" d="M 57.5 468 L 60.5 472 L 57.5 468 Z " /><path fill="rgb(239,248,253)" stroke="rgb(239,248,253)" stroke-width="1" opacity="1" d="M 76.5 477 L 248 477.5 L 76.5 478 L 76.5 477 Z " /><path fill="rgb(239,248,253)" stroke="rgb(239,248,253)" stroke-width="1" opacity="1" d="M 326.5 491 L 327.5 493 L 326.5 491 Z " /><path fill="rgb(239,248,253)" stroke="rgb(239,248,253)" stroke-width="1" opacity="1" d="M 332.5 494 L 487 494.5 L 332.5 495 L 332.5 494 Z " /><path fill="rgb(254,255,255)" stroke="rgb(254,255,255)" stroke-width="1" opacity="0.996078431372549" d="M 439.5 333 L 447.5 334 L 457 339 L 456.5 341 Q 451 334.5 439.5 334 L 439.5 333 Z " /><path fill="rgb(254,255,255)" stroke="rgb(254,255,255)" stroke-width="1" opacity="0.996078431372549" d="M 313.5 383 L 312.5 385 L 313.5 383 Z " /><path fill="rgb(254,255,255)" stroke="rgb(254,255,255)" stroke-width="1" opacity="0.996078431372549" d="M 256.5 486 L 307 486.5 L 256.5 487 L 256.5 486 Z " /><path fill="rgb(254,255,255)" stroke="rgb(254,255,255)" stroke-width="1" opacity="0.996078431372549" d="M 492.5 491 L 491.5 493 L 492.5 491 Z " /><path fill="rgb(255,255,255)" stroke="rgb(255,255,255)" stroke-width="1" opacity="1" d="M 71.5 35 L 440.5 35 Q 450.8 37.8 456 45.5 L 460 54.5 L 460 150.5 Q 457.2 159.7 450.5 165 L 440.5 170 L 71.5 170 Q 61.6 166.9 56 159.5 L 52 150.5 L 52 54.5 Q 54.8 44.3 62.5 39 L 71.5 35 Z M 91 68 L 89 69 L 85 74 L 85 132 L 87 135 L 92 137 L 99 136 L 103 131 L 103 75 L 101 70 L 98 68 L 91 68 Z M 346 94 L 341 100 L 342 108 L 347 111 L 356 110 L 359 105 L 358 98 Q 355 92 346 94 Z M 380 94 L 375 100 L 376 108 L 381 111 L 390 110 L 393 106 L 392 98 Q 390 92 380 94 Z M 415 94 L 413 95 L 409 101 Q 408 106 411 109 L 415 111 L 424 110 L 427 106 L 426 98 Q 424 92 415 94 Z " /><path fill="rgb(255,255,255)" stroke="rgb(255,255,255)" stroke-width="1" opacity="1" d="M 291.5 333 L 344.5 333 L 345 335.5 L 341 349.5 L 341 375 L 327.5 375 Q 317.4 377.4 312 384.5 L 307 394.5 L 307 486 L 256.5 486 L 256 482.5 L 248.5 477 L 71.5 477 Q 61.3 474.3 56 466.5 L 52 457.5 L 52 361.5 Q 54.4 351.9 61.5 347 L 71.5 342 L 283.5 342 L 289 338.5 L 291.5 333 Z M 92 375 L 87 377 L 85 381 L 85 439 L 86 441 L 91 444 L 98 444 L 101 442 L 103 438 L 103 382 L 102 380 Q 100 374 92 375 Z " /><path fill="rgb(255,255,255)" stroke="rgb(255,255,255)" stroke-width="1" opacity="1" d="M 366.5 333 L 438.5 333 L 446.5 335 L 458 342.5 L 460 350.5 L 460 375 L 359.5 375 L 359 374.5 L 359 351.5 L 362 340.5 L 366.5 333 Z " /><path fill="rgb(255,255,255)" stroke="rgb(255,255,255)" stroke-width="1" opacity="1" d="M 330.5 393 L 488.5 393 L 493 396.5 L 494 398.5 L 494 489.5 L 489.5 494 L 329.5 494 L 325 488.5 L 325 398.5 L 328.5 394 L 330.5 393 Z M 405 418 L 399 421 Q 394 425 392 432 Q 391 445 400 450 L 401 451 L 401 474 Q 403 480 414 478 L 419 471 L 419 452 L 418 451 L 420 450 Q 425 447 427 440 Q 429 429 424 425 L 415 418 L 405 418 Z " /><path fill="rgb(5,78,120)" stroke="rgb(5,78,120)" stroke-width="1" opacity="0.5254901960784314" d="M 0 0 L 512 0 L 512 399.5 L 511 399.5 Q 510.3 385.2 500.5 380 L 491.5 376 L 477 376 L 477 347.5 L 476 342.5 Q 472 328 464 317.5 L 467 313.5 L 470 302.5 L 470 272 L 476 269.5 L 477 267.5 L 477 205.5 Q 473.1 188.9 461.5 180 L 460 179.5 Q 472.7 170.7 477 153.5 L 477 51.5 Q 473.6 37.4 464.5 29 Q 456.4 21.1 443.5 18 L 68.5 18 L 55.5 23 L 47 29 L 40 38.5 L 35 51.5 L 35 153.5 Q 39.3 170.7 52 179.5 L 44 186.5 Q 37.5 194 35 205.5 L 35 306.5 Q 38.9 323.1 50.5 332 L 52 332.5 Q 39.3 341.3 35 358.5 L 35 460.5 Q 38.4 474.6 47.5 483 Q 55.6 490.9 68.5 494 L 250.5 494 L 254 491.5 L 255 487 L 307.5 487 Q 308.6 487.1 308 492.5 L 315 505 L 323.5 510 L 332 511.5 L 0 512 L 0 0 Z " /><path fill="rgb(5,78,120)" stroke="rgb(5,78,120)" stroke-width="1" opacity="0.5254901960784314" d="M 451.5 329 L 458 340.5 L 457 340.5 Q 457.8 338.3 455.5 339 L 443 332.5 L 451.5 329 Z " /><path fill="rgb(5,78,120)" stroke="rgb(5,78,120)" stroke-width="1" opacity="0.5254901960784314" d="M 511.5 487 L 512 512 L 487 511.5 Q 500.2 510.7 506 502.5 Q 511 497 511.5 487 Z " /><path fill="rgb(192,227,247)" stroke="rgb(192,227,247)" stroke-width="1" opacity="0.996078431372549" d="M 68.5 18 L 443.5 18 Q 457.6 21.4 466 30.5 Q 473.9 38.6 477 51.5 L 477 153.5 Q 472.7 170.7 460 179.5 L 468 186.5 Q 474.5 194 477 205.5 L 477 267.5 L 474.5 271 L 470 272 L 469.5 274 L 462 270.5 L 460 266.5 L 460 207.5 Q 457.5 199 451.5 194 L 438.5 188 L 73.5 188 Q 63 190.5 57 197.5 L 52 207.5 L 52 304.5 Q 54.5 313 60.5 318 L 69.5 323 L 74.5 324 L 284.5 324 L 290 328.5 L 291 332.5 L 290 336.5 L 285.5 341 L 282.5 342 L 70.5 342 Q 62 344.5 57 350.5 L 53 357.5 L 51 366.5 L 51 452.5 Q 53.5 454 52 459.5 L 60.5 472 L 69.5 477 Q 74.3 475.8 75.5 478 L 250.5 478 L 255 481.5 L 256 486.5 L 252.5 493 L 250.5 494 L 68.5 494 Q 54.4 490.6 46 481.5 Q 38.1 473.4 35 460.5 L 35 358.5 Q 39.3 341.3 52 332.5 L 44 325.5 Q 37.5 318 35 306.5 L 35 205.5 Q 38.9 188.9 50.5 180 L 52 179.5 Q 39.3 170.7 35 153.5 L 35 51.5 L 40 38.5 L 47 29 L 55.5 23 L 68.5 18 Z M 75 34 L 62 39 L 55 47 L 52 53 Q 54 58 51 60 L 51 146 L 53 155 L 57 162 Q 62 167 71 170 L 442 170 L 452 165 L 459 155 L 461 146 L 461 60 L 459 51 L 455 44 Q 449 36 438 34 L 75 34 Z " /><path fill="rgb(192,227,247)" stroke="rgb(192,227,247)" stroke-width="1" opacity="0.996078431372549" d="M 91.5 68 Q 99.1 66.9 101 71.5 L 103 75.5 L 103 128.5 L 99.5 135 L 92.5 137 L 86 132.5 L 85 129.5 L 85 74.5 L 89.5 69 L 91.5 68 Z " /><path fill="rgb(192,227,247)" stroke="rgb(192,227,247)" stroke-width="1" opacity="0.996078431372549" d="M 346.5 94 Q 355.9 92.7 358 98.5 L 359 103.5 L 354.5 110 L 347.5 111 L 342 106.5 L 341 100.5 L 343 96 L 346.5 94 Z " /><path fill="rgb(192,227,247)" stroke="rgb(192,227,247)" stroke-width="1" opacity="0.996078431372549" d="M 380.5 94 Q 390.3 92.3 392 98.5 L 393 103.5 L 388.5 110 L 381.5 111 L 376 106.5 L 375 100.5 L 380.5 94 Z " /><path fill="rgb(192,227,247)" stroke="rgb(192,227,247)" stroke-width="1" opacity="0.996078431372549" d="M 414.5 94 L 421.5 94 L 425 96 Q 427.6 98.3 427 104.5 L 422.5 110 L 415.5 111 L 410 106.5 L 409 101.5 L 414.5 94 Z " /><path fill="rgb(192,227,247)" stroke="rgb(192,227,247)" stroke-width="1" opacity="0.996078431372549" d="M 92.5 221 Q 99.1 221.4 102 225.5 L 103 228.5 L 103 283.5 L 99.5 289 L 92.5 291 L 86 286.5 L 85 284.5 L 85 227.5 L 89.5 222 L 92.5 221 Z " /><path fill="rgb(192,227,247)" stroke="rgb(192,227,247)" stroke-width="1" opacity="0.996078431372549" d="M 399.5 290 L 420.5 290 L 432.5 293 Q 451.3 300.3 463 314.5 L 463.5 316 L 465.5 315 L 464 317.5 Q 472 328 476 342.5 L 477 347.5 L 477 376 Q 499.2 373.5 507 386.5 L 510 391.5 L 512 400.5 L 512 486.5 L 510 495.5 L 502.5 506 L 495.5 510 L 486.5 512 L 332.5 512 L 323.5 510 L 315 505 L 309 495.5 L 307 486.5 L 307 396.5 Q 309.6 385.6 317.5 380 Q 325.6 373.2 341 375 L 341 351.5 L 346 331.5 Q 352.4 315.9 364.5 306 Q 377.7 293.7 399.5 290 Z M 402 308 Q 387 311 378 319 Q 364 330 359 350 L 359 375 L 360 375 L 461 375 L 460 349 Q 457 346 458 340 L 454 332 Q 452 327 451 330 L 450 328 Q 442 317 429 311 L 418 308 L 402 308 Z M 330 393 L 325 398 L 325 490 L 326 492 L 332 495 L 488 495 L 491 494 L 495 488 L 495 400 L 493 395 L 490 393 L 330 393 Z " /><path fill="rgb(192,227,247)" stroke="rgb(192,227,247)" stroke-width="1" opacity="0.996078431372549" d="M 469.5 302 L 468.5 304 L 469.5 302 Z " /><path fill="rgb(192,227,247)" stroke="rgb(192,227,247)" stroke-width="1" opacity="0.996078431372549" d="M 467.5 310 L 466.5 312 L 467.5 310 Z " /><path fill="rgb(192,227,247)" stroke="rgb(192,227,247)" stroke-width="1" opacity="0.996078431372549" d="M 92.5 375 Q 99.1 374.4 101 378.5 L 103 383.5 L 103 436.5 L 98.5 443 L 91.5 444 L 86 439.5 L 85 437.5 L 85 381.5 L 89.5 376 L 92.5 375 Z " /><path fill="rgb(192,227,247)" stroke="rgb(192,227,247)" stroke-width="1" opacity="0.996078431372549" d="M 405.5 418 Q 420.6 416.9 425 426.5 L 427 432.5 L 427 438.5 L 420.5 449 L 418 450.5 L 418 472.5 L 414.5 477 L 407.5 478 L 403 476 L 401 472.5 L 401 450.5 Q 392.2 446.3 392 433.5 Q 393.5 425 399.5 421 L 405.5 418 Z " /><path fill="rgb(194,228,248)" stroke="rgb(194,228,248)" stroke-width="1" opacity="1" d="M 51.5 59 L 52 145.5 L 51 145.5 L 51.5 59 Z " /><path fill="rgb(194,228,248)" stroke="rgb(194,228,248)" stroke-width="1" opacity="1" d="M 460.5 59 L 461 145.5 L 460 145.5 L 460.5 59 Z " /><path fill="rgb(194,228,248)" stroke="rgb(194,228,248)" stroke-width="1" opacity="1" d="M 389.5 95 L 390.5 97 L 389.5 95 Z " /><path fill="rgb(194,228,248)" stroke="rgb(194,228,248)" stroke-width="1" opacity="1" d="M 57.5 161 L 60.5 165 L 57.5 161 Z " /><path fill="rgb(194,228,248)" stroke="rgb(194,228,248)" stroke-width="1" opacity="1" d="M 454.5 161 L 451.5 165 L 454.5 161 Z " /><path fill="rgb(194,228,248)" stroke="rgb(194,228,248)" stroke-width="1" opacity="1" d="M 73.5 188 L 438.5 188 Q 448.2 190.3 454 196.5 L 460 207.5 L 460 266.5 L 463.5 272 L 470 274.5 L 470 301.5 L 468 303.5 L 469 306.5 L 466 311.5 L 467 313.5 L 463.5 316 L 453.5 305 Q 442.3 295.2 425.5 291 L 420.5 290 L 399.5 290 Q 371.5 295 357 313.5 Q 349.4 321.6 346 333 L 291.5 333 L 291 331.5 L 286.5 325 L 284.5 324 L 74.5 324 Q 64 322 58 315.5 L 52 304.5 L 52 207.5 Q 54.5 199 60.5 194 L 73.5 188 Z M 93 221 L 90 222 L 85 228 L 85 285 L 86 287 L 93 291 L 100 289 L 103 284 L 103 229 L 102 226 Q 99 221 93 221 Z " /><path fill="rgb(194,228,248)" stroke="rgb(194,228,248)" stroke-width="1" opacity="1" d="M 401.5 308 L 417.5 308 L 428.5 311 Q 441.8 316.8 450 327.5 L 449.5 330 L 448 329.5 Q 448.8 331.8 446.5 331 L 443.5 332 L 442 331.5 L 441.5 333 L 366.5 333 L 367 331.5 L 377.5 319 Q 386.8 310.8 401.5 308 Z " /><path fill="rgb(194,228,248)" stroke="rgb(194,228,248)" stroke-width="1" opacity="1" d="M 60.5 347 L 57.5 351 L 60.5 347 Z " /><path fill="rgb(194,228,248)" stroke="rgb(194,228,248)" stroke-width="1" opacity="1" d="M 460.5 357 L 461 374.5 L 460 374.5 L 460.5 357 Z " /><path fill="rgb(194,228,248)" stroke="rgb(194,228,248)" stroke-width="1" opacity="1" d="M 51.5 366 L 52 452.5 L 51 452.5 L 51.5 366 Z " /><path fill="rgb(194,228,248)" stroke="rgb(194,228,248)" stroke-width="1" opacity="1" d="M 396.5 446 L 398.5 449 L 396.5 446 Z " /></svg>